<?xml version="1.0" standalone="no"?>
<!DOCTYPE svg PUBLIC "-//W3C//DTD SVG 20010904//EN"
 "http://www.w3.org/TR/2001/REC-SVG-20010904/DTD/svg10.dtd">
<svg version="1.0" xmlns="http://www.w3.org/2000/svg"
 width="508.000000pt" height="508.000000pt" viewBox="0 0 508.000000 508.000000"
 preserveAspectRatio="xMidYMid meet">
<metadata>
Created by potrace 1.11, written by Peter Selinger 2001-2013
</metadata>
<g transform="translate(0.000000,508.000000) scale(0.100000,-0.100000)"
fill="#000000" stroke="none">
<path d="M2463 5069 c-149 -11 -282 -50 -438 -127 -284 -141 -636 -491 -852
-847 -120 -198 -318 -580 -396 -765 -77 -181 -193 -558 -246 -796 -48 -215
-65 -522 -41 -724 44 -361 226 -771 475 -1070 217 -260 464 -462 690 -563 129
-57 154 -66 278 -102 218 -64 314 -75 636 -75 307 0 380 8 549 56 240 69 519
208 738 369 106 78 274 250 352 360 214 302 342 598 387 892 21 144 21 663 0
812 -49 340 -205 779 -417 1176 -264 493 -426 734 -650 967 -222 231 -400 344
-636 404 -76 19 -299 49 -322 42 -3 0 -51 -4 -107 -9z m788 -304 c111 -83 409
-394 409 -427 0 -15 -94 -8 -162 11 -146 42 -256 127 -316 247 -29 58 -52 148
-52 206 0 43 24 35 121 -37z m-2031 -828 c-28 -111 -66 -181 -142 -261 -38
-39 -65 -62 -61 -51 19 57 211 401 219 392 2 -1 -6 -38 -16 -80z m2505 -188
c160 -101 316 -322 331 -468 8 -74 -18 -136 -75 -175 -102 -71 -188 -30 -268
129 -74 146 -126 434 -93 519 13 35 44 34 105 -5z m-517 -465 c164 -34 301
-112 427 -245 306 -324 404 -851 241 -1302 -139 -385 -404 -685 -669 -757
-118 -33 -295 -32 -427 3 -434 113 -671 445 -672 942 0 230 46 439 141 635 51
103 192 340 251 419 195 264 426 363 708 305z m-2347 -1884 c10 -6 19 -17 19
-24 0 -28 66 -110 134 -164 82 -68 326 -240 471 -335 241 -156 580 -331 712
-366 76 -21 102 -90 71 -193 -9 -31 -16 -38 -32 -36 -35 4 -46 -10 -46 -63 0
-48 -1 -51 -37 -66 -54 -24 -105 -21 -213 10 -266 78 -448 180 -658 369 -166
150 -327 338 -427 501 -43 69 -48 83 -46 130 1 46 -3 60 -33 101 -32 45 -33
50 -21 80 7 18 27 38 46 48 40 21 35 21 60 8z"/>
</g>
</svg>
